<?xml version="1.0" encoding="utf-8"?>
<!-- Generator: Adobe Illustrator 15.0.2, SVG Export Plug-In . SVG Version: 6.00 Build 0)  -->
<!DOCTYPE svg PUBLIC "-//W3C//DTD SVG 1.1//EN" "http://www.w3.org/Graphics/SVG/1.1/DTD/svg11.dtd">
<svg version="1.1" id="Calque_1" xmlns="http://www.w3.org/2000/svg" xmlns:xlink="http://www.w3.org/1999/xlink" x="0px" y="0px"
	 width="170px" height="34px" viewBox="-34 0 170 34" enable-background="new -34 0 170 34" xml:space="preserve">
<g>
	<path fill="#542954" d="M28,0H6C3.8,0,2,1.8,2,4v10v16v4h4h22h4v-4V14V4C32,1.8,30.2,0,28,0z"/>
	<g>
		<path fill="#FFFBFF" d="M27.268,16.986l-9.693-8.838c-0.147-0.133-0.353-0.166-0.572-0.141c-0.22-0.025-0.427,0.008-0.575,0.141
			l-9.692,8.838c-0.349,0.317-0.255,0.99,0.21,1.502C7.411,19,8.072,19.157,8.421,18.835L17,11.018l8.578,7.82
			c0.349,0.319,1.011,0.164,1.477-0.346C27.521,17.979,27.615,17.307,27.268,16.986z"/>
		<path fill="#FFFBFF" d="M17.345,12.324c-0.168-0.149-0.448-0.151-0.618-0.002l-6.457,5.615c-0.17,0.146-0.31,0.452-0.31,0.68
			v6.969c0,0.229,0.184,0.415,0.411,0.415h4.143c0.227,0,0.412-0.187,0.412-0.415v-5.369c0-0.229,0.184-0.414,0.41-0.414h3.322
			c0.229,0,0.414,0.185,0.414,0.414v5.369c0,0.229,0.185,0.415,0.41,0.415h4.102c0.229,0,0.411-0.187,0.411-0.415v-6.969
			c0-0.23-0.136-0.533-0.31-0.682L17.345,12.324z"/>
		<path fill="#FFFBFF" d="M23.688,12.925c0.166,0.151,0.303,0.091,0.303-0.134V9.549c0-0.227-0.184-0.41-0.409-0.41h-2.42
			c-0.229,0-0.415,0.185-0.415,0.41v0.287c0,0.225,0.134,0.534,0.309,0.686L23.688,12.925z"/>
	</g>
</g>
<g>
	<path fill="#542954" d="M-6,0h-22c-2.2,0-4,1.8-4,4v10v16v4h4h22h4v-4V14V4C-2,1.8-3.8,0-6,0z"/>
	<g>
		<path fill="#FFFBFF" d="M-6.732,16.986l-9.693-8.838c-0.147-0.133-0.353-0.166-0.572-0.141c-0.22-0.025-0.427,0.008-0.575,0.141
			l-9.692,8.838c-0.349,0.317-0.255,0.99,0.21,1.502c0.465,0.512,1.126,0.669,1.475,0.347L-17,11.018l8.578,7.82
			c0.349,0.319,1.011,0.164,1.477-0.346C-6.479,17.979-6.385,17.307-6.732,16.986z"/>
		<path fill="#FFFBFF" d="M-16.655,12.324c-0.168-0.149-0.448-0.151-0.618-0.002l-6.457,5.615c-0.17,0.146-0.31,0.452-0.31,0.68
			v6.969c0,0.229,0.184,0.415,0.411,0.415h4.143c0.227,0,0.412-0.187,0.412-0.415v-5.369c0-0.229,0.184-0.414,0.41-0.414h3.322
			c0.229,0,0.414,0.185,0.414,0.414v5.369c0,0.229,0.185,0.415,0.41,0.415h4.102c0.229,0,0.411-0.187,0.411-0.415v-6.969
			c0-0.23-0.136-0.533-0.31-0.682L-16.655,12.324z"/>
		<path fill="#FFFBFF" d="M-10.312,12.925c0.166,0.151,0.303,0.091,0.303-0.134V9.549c0-0.227-0.184-0.41-0.409-0.41h-2.42
			c-0.229,0-0.415,0.185-0.415,0.41v0.287c0,0.225,0.134,0.534,0.309,0.686L-10.312,12.925z"/>
	</g>
</g>
<path fill="#614161" d="M62,0H40c-2.2,0-4,1.8-4,4v10v16v4h4h22h4v-4V14V4C66,1.8,64.2,0,62,0z"/>
<path opacity="0.45" fill="#FFFFFE" enable-background="new    " d="M62,0H40c-2.2,0-4,1.8-4,4v10v16v4h4h22h4v-4V14V4
	C66,1.8,64.2,0,62,0z"/>
<g>
	<path fill="#E5D7E5" d="M61.268,16.986l-9.692-8.837c-0.147-0.133-0.353-0.166-0.572-0.141c-0.22-0.025-0.427,0.007-0.575,0.141
		l-9.692,8.837c-0.35,0.317-0.255,0.99,0.21,1.5c0.466,0.513,1.127,0.671,1.476,0.349L51,11.016l8.579,7.822
		c0.349,0.319,1.01,0.164,1.476-0.346C61.521,17.977,61.616,17.305,61.268,16.986z"/>
	<path fill="#E5D7E5" d="M51.345,12.322c-0.168-0.149-0.448-0.151-0.618-0.002l-6.458,5.615c-0.17,0.147-0.31,0.455-0.31,0.683
		v6.969c0,0.229,0.185,0.415,0.412,0.415h4.143c0.226,0,0.411-0.188,0.411-0.415v-5.369c0-0.229,0.184-0.414,0.411-0.414h3.324
		c0.229,0,0.414,0.185,0.414,0.414v5.369c0,0.229,0.185,0.415,0.41,0.415h4.103c0.226,0,0.412-0.188,0.412-0.415v-6.969
		c0-0.23-0.136-0.533-0.31-0.685L51.345,12.322z"/>
	<path fill="#E5D7E5" d="M57.688,12.923c0.166,0.152,0.304,0.091,0.304-0.134V9.548c0-0.226-0.185-0.411-0.409-0.411h-2.42
		c-0.23,0-0.416,0.186-0.416,0.411v0.287c0,0.226,0.135,0.535,0.311,0.687L57.688,12.923z"/>
</g>
<path fill="#614161" d="M96,0H74c-2.2,0-4,1.8-4,4v10v16v4h4h22h4v-4V14V4C100,1.8,98.2,0,96,0z"/>
<path opacity="0.45" fill="#FFFFFE" enable-background="new    " d="M96,0H74c-2.2,0-4,1.8-4,4v10v16v4h4h22h4v-4V14V4
	C100,1.8,98.2,0,96,0z"/>
<g>
	<path fill="#E5D7E5" d="M95.268,16.986l-9.691-8.837c-0.146-0.133-0.354-0.166-0.572-0.141c-0.22-0.025-0.427,0.007-0.574,0.141
		l-9.691,8.837c-0.352,0.317-0.256,0.99,0.209,1.5c0.467,0.513,1.128,0.671,1.477,0.349L85,11.016l8.579,7.822
		c0.349,0.319,1.01,0.164,1.476-0.346C95.521,17.977,95.616,17.305,95.268,16.986z"/>
	<path fill="#E5D7E5" d="M85.346,12.322c-0.168-0.149-0.449-0.151-0.619-0.002l-6.457,5.615c-0.17,0.147-0.311,0.455-0.311,0.683
		v6.969c0,0.229,0.186,0.415,0.412,0.415h4.143c0.228,0,0.411-0.188,0.411-0.415v-5.369c0-0.229,0.185-0.414,0.411-0.414h3.324
		c0.229,0,0.414,0.185,0.414,0.414v5.369c0,0.229,0.185,0.415,0.41,0.415h4.103c0.226,0,0.412-0.188,0.412-0.415v-6.969
		c0-0.23-0.136-0.533-0.31-0.685L85.346,12.322z"/>
	<path fill="#E5D7E5" d="M91.688,12.923c0.166,0.152,0.305,0.091,0.305-0.134V9.548c0-0.226-0.186-0.411-0.409-0.411h-2.42
		c-0.229,0-0.416,0.186-0.416,0.411v0.287c0,0.226,0.135,0.535,0.312,0.687L91.688,12.923z"/>
</g>
<path fill="#614161" d="M130,0h-22c-2.2,0-4,1.8-4,4v10v16v4h4h22h4v-4V14V4C134,1.8,132.2,0,130,0z"/>
<path opacity="0.45" fill="#FFFFFE" enable-background="new    " d="M130,0h-22c-2.2,0-4,1.8-4,4v10v16v4h4h22h4v-4V14V4
	C134,1.8,132.2,0,130,0z"/>
<g>
	<path fill="#E5D7E5" d="M129.268,16.986l-9.691-8.837c-0.146-0.133-0.354-0.166-0.572-0.141c-0.22-0.025-0.427,0.007-0.574,0.141
		l-9.691,8.837c-0.352,0.317-0.256,0.99,0.209,1.5c0.467,0.513,1.128,0.671,1.477,0.349L119,11.016l8.579,7.822
		c0.349,0.319,1.01,0.164,1.476-0.346C129.521,17.977,129.616,17.305,129.268,16.986z"/>
	<path fill="#E5D7E5" d="M119.346,12.322c-0.168-0.149-0.449-0.151-0.619-0.002l-6.457,5.615c-0.17,0.147-0.311,0.455-0.311,0.683
		v6.969c0,0.229,0.186,0.415,0.412,0.415h4.143c0.228,0,0.411-0.188,0.411-0.415v-5.369c0-0.229,0.185-0.414,0.411-0.414h3.324
		c0.229,0,0.414,0.185,0.414,0.414v5.369c0,0.229,0.185,0.415,0.41,0.415h4.103c0.226,0,0.412-0.188,0.412-0.415v-6.969
		c0-0.23-0.136-0.533-0.31-0.685L119.346,12.322z"/>
	<path fill="#E5D7E5" d="M125.688,12.923c0.166,0.152,0.305,0.091,0.305-0.134V9.548c0-0.226-0.186-0.411-0.409-0.411h-2.42
		c-0.229,0-0.416,0.186-0.416,0.411v0.287c0,0.226,0.135,0.535,0.312,0.687L125.688,12.923z"/>
</g>
</svg>
