<?xml version="1.0" encoding="utf-8"?>
<!-- Generator: Adobe Illustrator 15.0.2, SVG Export Plug-In . SVG Version: 6.00 Build 0)  -->
<!DOCTYPE svg PUBLIC "-//W3C//DTD SVG 1.1//EN" "http://www.w3.org/Graphics/SVG/1.1/DTD/svg11.dtd">
<svg version="1.1" id="Calque_1" xmlns="http://www.w3.org/2000/svg" xmlns:xlink="http://www.w3.org/1999/xlink" x="0px" y="0px"
	 width="170px" height="34px" viewBox="-34 0 170 34" enable-background="new -34 0 170 34" xml:space="preserve">
<path fill="#542954" d="M28,0H6C3.8,0,2,1.8,2,4v10v16v4h4h22h4v-4V14V4C32,1.8,30.2,0,28,0z"/>
<path fill="#FFFBFF" d="M16.988,8c-5.073,0-4.828,6.264-4.828,6.264s-0.703-0.091-0.703,0.947c0,1.04,0.733,1.04,0.733,1.04
	c0,1.069,2.046,2.843,2.046,2.843v0.609C9.869,19.703,8.675,26,8.675,26h16.647c0,0-1.192-6.297-5.562-6.297v-0.609
	c0,0,2.046-1.772,2.046-2.843c0,0,0.737,0,0.737-1.04c0-1.037-0.703-0.947-0.703-0.947S22.086,8,17.012,8H16.988z"/>
<path fill="#542954" d="M-6,0h-22c-2.2,0-4,1.8-4,4v10v16v4h4h22h4v-4V14V4C-2,1.8-3.8,0-6,0z"/>
<path fill="#FFFBFF" d="M-17.012,8c-5.073,0-4.828,6.264-4.828,6.264s-0.703-0.091-0.703,0.947c0,1.04,0.733,1.04,0.733,1.04
	c0,1.069,2.046,2.843,2.046,2.843v0.609c-4.367,0-5.561,6.297-5.561,6.297h16.647c0,0-1.192-6.297-5.562-6.297v-0.609
	c0,0,2.046-1.772,2.046-2.843c0,0,0.737,0,0.737-1.04c0-1.037-0.703-0.947-0.703-0.947S-11.914,8-16.988,8H-17.012z"/>
<path fill="#614161" d="M62,0H40c-2.2,0-4,1.8-4,4v10v16v4h4h22h4v-4V14V4C66,1.8,64.2,0,62,0z"/>
<path opacity="0.45" fill="#FFFFFE" enable-background="new    " d="M62,0H40c-2.2,0-4,1.8-4,4v10v16v4h4h22h4v-4V14V4
	C66,1.8,64.2,0,62,0z"/>
<path fill="#E5D7E5" d="M50.988,8c-5.073,0-4.828,6.264-4.828,6.264s-0.703-0.091-0.703,0.947c0,1.04,0.733,1.04,0.733,1.04
	c0,1.069,2.046,2.843,2.046,2.843v0.609c-4.367,0-5.561,6.297-5.561,6.297h16.647c0,0-1.192-6.297-5.562-6.297v-0.609
	c0,0,2.046-1.772,2.046-2.843c0,0,0.736,0,0.736-1.04c0-1.037-0.703-0.947-0.703-0.947S56.086,8,51.012,8H50.988z"/>
<path fill="#614161" d="M96,0H74c-2.2,0-4,1.8-4,4v10v16v4h4h22h4v-4V14V4C100,1.8,98.2,0,96,0z"/>
<path opacity="0.45" fill="#FFFFFE" enable-background="new    " d="M96,0H74c-2.2,0-4,1.8-4,4v10v16v4h4h22h4v-4V14V4
	C100,1.8,98.2,0,96,0z"/>
<path fill="#E5D7E5" d="M84.988,8c-5.073,0-4.828,6.264-4.828,6.264s-0.703-0.091-0.703,0.947c0,1.04,0.732,1.04,0.732,1.04
	c0,1.069,2.047,2.843,2.047,2.843v0.609c-4.367,0-5.563,6.297-5.563,6.297H93.32c0,0-1.191-6.297-5.562-6.297v-0.609
	c0,0,2.046-1.772,2.046-2.843c0,0,0.736,0,0.736-1.04c0-1.037-0.703-0.947-0.703-0.947S90.086,8,85.012,8H84.988z"/>
<path fill="#614161" d="M130,0h-22c-2.2,0-4,1.8-4,4v10v16v4h4h22h4v-4V14V4C134,1.8,132.2,0,130,0z"/>
<path opacity="0.45" fill="#FFFFFE" enable-background="new    " d="M130,0h-22c-2.2,0-4,1.8-4,4v10v16v4h4h22h4v-4V14V4
	C134,1.8,132.2,0,130,0z"/>
<path fill="#E5D7E5" d="M118.988,8c-5.073,0-4.828,6.264-4.828,6.264s-0.703-0.091-0.703,0.947c0,1.04,0.732,1.04,0.732,1.04
	c0,1.069,2.047,2.843,2.047,2.843v0.609c-4.367,0-5.563,6.297-5.563,6.297h16.646c0,0-1.191-6.297-5.562-6.297v-0.609
	c0,0,2.046-1.772,2.046-2.843c0,0,0.736,0,0.736-1.04c0-1.037-0.703-0.947-0.703-0.947S124.086,8,119.012,8H118.988z"/>
</svg>
