<?xml version="1.0" encoding="utf-8"?>
<!-- Generator: Adobe Illustrator 15.0.2, SVG Export Plug-In . SVG Version: 6.00 Build 0)  -->
<!DOCTYPE svg PUBLIC "-//W3C//DTD SVG 1.1//EN" "http://www.w3.org/Graphics/SVG/1.1/DTD/svg11.dtd">
<svg version="1.1" id="Calque_1" xmlns="http://www.w3.org/2000/svg" xmlns:xlink="http://www.w3.org/1999/xlink" x="0px" y="0px"
	 width="170px" height="34px" viewBox="-34 0 170 34" enable-background="new -34 0 170 34" xml:space="preserve">
<path fill="#542954" d="M28,0H6C3.8,0,2,1.8,2,4v10v16v4h4h22h4v-4V14V4C32,1.8,30.2,0,28,0z"/>
<g>
	<path fill="#FFFBFF" d="M8.409,10l7.88,7.882c0.189,0.188,0.44,0.293,0.711,0.293s0.521-0.104,0.711-0.293L25.592,10H8.409z"/>
	<g>
		<path fill="#FFFBFF" d="M20.016,17.016l-1.568,1.569c-0.389,0.39-0.901,0.582-1.414,0.582c-0.512,0-1.023-0.192-1.413-0.582
			l-1.6-1.603l-6.598,6.599c-0.043,0.046-0.087,0.081-0.13,0.118C7.473,23.887,7.727,24,8.007,24h17.986
			c0.28,0,0.534-0.117,0.717-0.301c-0.045-0.037-0.088-0.072-0.131-0.118L20.016,17.016z"/>
	</g>
	<g>
		<path fill="#FFFBFF" d="M7.454,10.419c-0.051-0.051-0.086-0.102-0.127-0.149c-0.199,0.184-0.324,0.443-0.324,0.734v11.588
			l6.313-6.313L7.454,10.419z"/>
		<path fill="#FFFBFF" d="M26.611,10.419l-5.896,5.894l6.281,6.28V11.004c0-0.273-0.111-0.52-0.288-0.701
			C26.675,10.341,26.65,10.379,26.611,10.419z"/>
	</g>
</g>
<path fill="#542954" d="M-6,0h-22c-2.2,0-4,1.8-4,4v10v16v4h4h22h4v-4V14V4C-2,1.8-3.8,0-6,0z"/>
<g>
	<path fill="#FFFBFF" d="M-25.591,10l7.88,7.882c0.189,0.188,0.44,0.293,0.711,0.293s0.521-0.104,0.711-0.293L-8.408,10H-25.591z"/>
	<g>
		<path fill="#FFFBFF" d="M-13.984,17.016l-1.568,1.569c-0.389,0.39-0.901,0.582-1.414,0.582c-0.512,0-1.023-0.192-1.413-0.582
			l-1.6-1.603l-6.598,6.599c-0.043,0.046-0.087,0.081-0.13,0.118c0.18,0.188,0.434,0.301,0.714,0.301h17.986
			c0.28,0,0.534-0.117,0.717-0.301c-0.045-0.037-0.088-0.072-0.131-0.118L-13.984,17.016z"/>
	</g>
	<g>
		<path fill="#FFFBFF" d="M-26.546,10.419c-0.051-0.051-0.086-0.102-0.127-0.149c-0.199,0.184-0.324,0.443-0.324,0.734v11.588
			l6.313-6.313L-26.546,10.419z"/>
		<path fill="#FFFBFF" d="M-7.389,10.419l-5.896,5.894l6.281,6.28V11.004c0-0.273-0.111-0.52-0.288-0.701
			C-7.325,10.341-7.35,10.379-7.389,10.419z"/>
	</g>
</g>
<g>
	<path fill="#614161" d="M62,0H40c-2.2,0-4,1.8-4,4v10v16v4h4h22h4v-4V14V4C66,1.8,64.2,0,62,0z"/>
	<path opacity="0.45" fill="#FFFFFE" enable-background="new    " d="M62,0H40c-2.2,0-4,1.8-4,4v10v16v4h4h22h4v-4V14V4
		C66,1.8,64.2,0,62,0z"/>
	<g>
		<path fill="#E5D7E5" d="M42.409,10l7.88,7.882c0.189,0.188,0.44,0.293,0.711,0.293s0.521-0.104,0.711-0.293L59.592,10H42.409z"/>
		<g>
			<path fill="#E5D7E5" d="M54.016,17.016l-1.567,1.569c-0.39,0.39-0.901,0.582-1.414,0.582c-0.512,0-1.023-0.192-1.413-0.582
				l-1.6-1.603l-6.598,6.599c-0.043,0.046-0.087,0.081-0.13,0.118C41.473,23.887,41.727,24,42.007,24h17.986
				c0.28,0,0.534-0.116,0.717-0.301c-0.045-0.037-0.088-0.072-0.131-0.118L54.016,17.016z"/>
		</g>
		<g>
			<path fill="#E5D7E5" d="M41.454,10.419c-0.051-0.051-0.086-0.102-0.127-0.149c-0.199,0.184-0.324,0.443-0.324,0.734v11.588
				l6.313-6.313L41.454,10.419z"/>
			<path fill="#E5D7E5" d="M60.611,10.419l-5.896,5.894l6.281,6.28V11.004c0-0.273-0.11-0.52-0.288-0.701
				C60.675,10.341,60.65,10.379,60.611,10.419z"/>
		</g>
	</g>
</g>
<g>
	<path fill="#614161" d="M96,0H74c-2.2,0-4,1.8-4,4v10v16v4h4h22h4v-4V14V4C100,1.8,98.2,0,96,0z"/>
	<path opacity="0.45" fill="#FFFFFE" enable-background="new    " d="M96,0H74c-2.2,0-4,1.8-4,4v10v16v4h4h22h4v-4V14V4
		C100,1.8,98.2,0,96,0z"/>
	<g>
		<path fill="#E5D7E5" d="M76.409,10l7.88,7.882c0.189,0.188,0.439,0.293,0.711,0.293s0.521-0.104,0.711-0.293L93.592,10H76.409z"/>
		<g>
			<path fill="#E5D7E5" d="M88.016,17.016l-1.566,1.569c-0.391,0.39-0.901,0.582-1.414,0.582c-0.514,0-1.023-0.192-1.413-0.582
				l-1.601-1.603l-6.599,6.599c-0.043,0.046-0.087,0.081-0.13,0.118C75.473,23.887,75.727,24,76.007,24h17.986
				c0.28,0,0.534-0.116,0.717-0.301c-0.045-0.037-0.088-0.072-0.131-0.118L88.016,17.016z"/>
		</g>
		<g>
			<path fill="#E5D7E5" d="M75.454,10.419c-0.052-0.051-0.086-0.102-0.127-0.149c-0.199,0.184-0.324,0.443-0.324,0.734v11.588
				l6.313-6.313L75.454,10.419z"/>
			<path fill="#E5D7E5" d="M94.611,10.419l-5.896,5.894l6.281,6.28V11.004c0-0.273-0.109-0.52-0.288-0.701
				C94.675,10.341,94.65,10.379,94.611,10.419z"/>
		</g>
	</g>
</g>
<g>
	<path fill="#614161" d="M130,0h-22c-2.2,0-4,1.8-4,4v10v16v4h4h22h4v-4V14V4C134,1.8,132.2,0,130,0z"/>
	<path opacity="0.45" fill="#FFFFFE" enable-background="new    " d="M130,0h-22c-2.2,0-4,1.8-4,4v10v16v4h4h22h4v-4V14V4
		C134,1.8,132.2,0,130,0z"/>
	<g>
		<path fill="#E5D7E5" d="M110.409,10l7.88,7.882c0.189,0.188,0.439,0.293,0.711,0.293s0.521-0.104,0.711-0.293L127.592,10H110.409z
			"/>
		<g>
			<path fill="#E5D7E5" d="M122.016,17.016l-1.566,1.569c-0.391,0.39-0.901,0.582-1.414,0.582c-0.514,0-1.023-0.192-1.413-0.582
				l-1.601-1.603l-6.599,6.599c-0.043,0.046-0.087,0.081-0.13,0.118c0.18,0.188,0.434,0.301,0.714,0.301h17.986
				c0.28,0,0.534-0.116,0.717-0.301c-0.045-0.037-0.088-0.072-0.131-0.118L122.016,17.016z"/>
		</g>
		<g>
			<path fill="#E5D7E5" d="M109.454,10.419c-0.052-0.051-0.086-0.102-0.127-0.149c-0.199,0.184-0.324,0.443-0.324,0.734v11.588
				l6.313-6.313L109.454,10.419z"/>
			<path fill="#E5D7E5" d="M128.611,10.419l-5.896,5.894l6.281,6.28V11.004c0-0.273-0.109-0.52-0.288-0.701
				C128.675,10.341,128.65,10.379,128.611,10.419z"/>
		</g>
	</g>
</g>
</svg>
