<?xml version="1.0" encoding="utf-8"?>
<!-- Generator: Adobe Illustrator 15.0.2, SVG Export Plug-In . SVG Version: 6.00 Build 0)  -->
<!DOCTYPE svg PUBLIC "-//W3C//DTD SVG 1.1//EN" "http://www.w3.org/Graphics/SVG/1.1/DTD/svg11.dtd">
<svg version="1.1" id="Calque_1" xmlns="http://www.w3.org/2000/svg" xmlns:xlink="http://www.w3.org/1999/xlink" x="0px" y="0px"
	 width="98px" height="34px" viewBox="0 0 98 34" enable-background="new 0 0 98 34" xml:space="preserve">
<image display="none" overflow="visible" enable-background="new    " width="1" height="39" xlink:href="4401577B.jpeg"  transform="matrix(1 0 0 0.9744 4.882813e-004 -4.882813e-004)">
</image>
<path fill="#614161" d="M92,0H6C3.8,0,2,1.8,2,4v10v16v4h4h86h4v-4V14V4C96,1.8,94.2,0,92,0z"/>
<path opacity="0.45" fill="#FFFFFE" d="M92,0H6C3.8,0,2,1.8,2,4v10v16v4h4h86h4v-4V14V4C96,1.8,94.2,0,92,0z"/>
</svg>
