<?xml version="1.0" encoding="utf-8"?>
<!-- Generator: Adobe Illustrator 15.0.2, SVG Export Plug-In . SVG Version: 6.00 Build 0)  -->
<!DOCTYPE svg PUBLIC "-//W3C//DTD SVG 1.1//EN" "http://www.w3.org/Graphics/SVG/1.1/DTD/svg11.dtd">
<svg version="1.1" id="Calque_1" xmlns="http://www.w3.org/2000/svg" xmlns:xlink="http://www.w3.org/1999/xlink" x="0px" y="0px"
	 width="140px" height="140px" viewBox="0 0 140 140" enable-background="new 0 0 140 140" xml:space="preserve">
<g>
	<g>
		<linearGradient id="SVGID_1_" gradientUnits="userSpaceOnUse" x1="187.6826" y1="48.6826" x2="54.4985" y2="181.8667">
			<stop  offset="0" style="stop-color:#F2F2F2"/>
			<stop  offset="1" style="stop-color:#C9D9DE"/>
		</linearGradient>
		<path fill="url(#SVGID_1_)" d="M139.107,123.494c-0.596-1.578-1.464-2.848-2.608-3.81l-28.698-27.28
			c-2.022,3.069-4.322,5.909-6.918,8.505c-3.023,3.022-6.369,5.653-10.033,7.897l29.385,27.968c0.96,1.052,2.173,1.853,3.638,2.402
			c1.464,0.548,2.95,0.823,4.46,0.823c1.556,0,3.055-0.31,4.495-0.927c1.441-0.618,2.734-1.521,3.878-2.711
			c1.099-1.144,1.923-2.426,2.471-3.844c0.55-1.418,0.824-2.859,0.824-4.323C140,126.64,139.702,125.072,139.107,123.494z"/>
		<linearGradient id="SVGID_2_" gradientUnits="userSpaceOnUse" x1="138.8008" y1="-0.1973" x2="5.6183" y2="132.9852">
			<stop  offset="0" style="stop-color:#F2F2F2"/>
			<stop  offset="1" style="stop-color:#C9D9DE"/>
		</linearGradient>
		<path fill="url(#SVGID_2_)" d="M39.486,100.17c-0.436-0.267-0.862-0.544-1.285-0.824C38.623,99.628,39.053,99.902,39.486,100.17z"
			/>
		<linearGradient id="SVGID_3_" gradientUnits="userSpaceOnUse" x1="141.7822" y1="2.7817" x2="8.5979" y2="135.9661">
			<stop  offset="0" style="stop-color:#F2F2F2"/>
			<stop  offset="1" style="stop-color:#C9D9DE"/>
		</linearGradient>
		<path fill="url(#SVGID_3_)" d="M39.702,100.303c0.204,0.124,0.405,0.251,0.61,0.371c1.746,1.025,3.559,1.924,5.436,2.702
			c-0.136-0.058-0.271-0.112-0.406-0.171C43.369,102.352,41.489,101.382,39.702,100.303z"/>
		<linearGradient id="SVGID_4_" gradientUnits="userSpaceOnUse" x1="147.4941" y1="8.4941" x2="14.3101" y2="141.6782">
			<stop  offset="0" style="stop-color:#F2F2F2"/>
			<stop  offset="1" style="stop-color:#C9D9DE"/>
		</linearGradient>
		<path fill="url(#SVGID_4_)" d="M50.813,105.135c0.03,0.009,0.062,0.017,0.093,0.024c-0.041-0.011-0.082-0.021-0.122-0.032
			C50.794,105.129,50.804,105.132,50.813,105.135z"/>
		<linearGradient id="SVGID_5_" gradientUnits="userSpaceOnUse" x1="145.7598" y1="6.7598" x2="12.5759" y2="139.9436">
			<stop  offset="0" style="stop-color:#F2F2F2"/>
			<stop  offset="1" style="stop-color:#C9D9DE"/>
		</linearGradient>
		<path fill="url(#SVGID_5_)" d="M50.784,105.127c-1.729-0.489-3.406-1.076-5.036-1.751
			C47.393,104.067,49.072,104.651,50.784,105.127z"/>
		<linearGradient id="SVGID_6_" gradientUnits="userSpaceOnUse" x1="147.8174" y1="8.8174" x2="14.6333" y2="142.0015">
			<stop  offset="0" style="stop-color:#F2F2F2"/>
			<stop  offset="1" style="stop-color:#C9D9DE"/>
		</linearGradient>
		<path fill="url(#SVGID_6_)" d="M51.807,105.396c-0.301-0.077-0.602-0.153-0.9-0.237C51.205,105.241,51.506,105.321,51.807,105.396
			z"/>
		<linearGradient id="SVGID_7_" gradientUnits="userSpaceOnUse" x1="139.416" y1="0.4155" x2="6.2319" y2="133.5996">
			<stop  offset="0" style="stop-color:#F2F2F2"/>
			<stop  offset="1" style="stop-color:#C9D9DE"/>
		</linearGradient>
		<path fill="url(#SVGID_7_)" d="M39.702,100.303c-0.071-0.045-0.146-0.088-0.216-0.133
			C39.558,100.214,39.631,100.258,39.702,100.303z"/>
		<linearGradient id="SVGID_8_" gradientUnits="userSpaceOnUse" x1="119.5205" y1="-19.4795" x2="-13.6636" y2="113.7046">
			<stop  offset="0" style="stop-color:#F2F2F2"/>
			<stop  offset="1" style="stop-color:#C9D9DE"/>
		</linearGradient>
		<path fill="url(#SVGID_8_)" d="M62.515,18.272c-6.084,0-11.808,1.161-17.173,3.483c-5.365,2.323-10.042,5.479-14.033,9.47
			c-3.99,3.991-7.146,8.685-9.469,14.082c-2.324,5.397-3.484,11.138-3.484,17.222c0,6.085,1.16,11.81,3.484,17.174
			c2.322,5.364,5.479,10.042,9.469,14.032c2.104,2.104,4.406,3.971,6.893,5.61c-2.451-1.633-4.723-3.498-6.811-5.604
			c-2.677-2.699-4.976-5.686-6.897-8.956c-1.921-3.271-3.409-6.783-4.461-10.535s-1.579-7.664-1.579-11.736
			c0-4.072,0.527-7.984,1.579-11.736c1.052-3.752,2.54-7.264,4.461-10.535c1.922-3.271,4.221-6.246,6.897-8.922
			c2.677-2.677,5.65-4.976,8.922-6.897c3.271-1.922,6.783-3.409,10.535-4.461s7.641-1.578,11.667-1.578
			c6.131,0,11.885,1.155,17.261,3.466c3.774,1.622,7.202,3.67,10.299,6.126c-3.117-2.492-6.575-4.571-10.387-6.222
			C74.323,19.433,68.6,18.272,62.515,18.272z"/>
		<linearGradient id="SVGID_9_" gradientUnits="userSpaceOnUse" x1="132.043" y1="-6.957" x2="-1.1411" y2="126.2271">
			<stop  offset="0" style="stop-color:#F2F2F2"/>
			<stop  offset="1" style="stop-color:#C9D9DE"/>
		</linearGradient>
		<path fill="url(#SVGID_9_)" d="M62.515,18.385c-4.026,0-7.915,0.526-11.667,1.578s-7.264,2.54-10.535,4.461
			c-3.271,1.921-6.245,4.221-8.922,6.897c-2.677,2.676-4.976,5.65-6.897,8.922c-1.921,3.271-3.409,6.783-4.461,10.535
			c-1.052,3.751-1.579,7.664-1.579,11.736c0,4.072,0.527,7.984,1.579,11.736s2.54,7.264,4.461,10.535
			c1.922,3.271,4.221,6.257,6.897,8.956c2.088,2.105,4.359,3.971,6.811,5.604c0.423,0.28,0.85,0.558,1.285,0.824
			c0.07,0.045,0.145,0.088,0.216,0.133c1.787,1.079,3.667,2.049,5.64,2.902c0.135,0.059,0.271,0.113,0.406,0.171
			c1.63,0.675,3.307,1.262,5.036,1.751c0.04,0.011,0.081,0.021,0.122,0.032c0.299,0.084,0.6,0.16,0.9,0.237
			c3.437,0.86,7.005,1.293,10.708,1.293c6.085,0,11.809-1.162,17.173-3.484c5.365-2.321,10.043-5.479,14.033-9.47
			c3.991-3.99,7.147-8.668,9.47-14.032c2.323-5.364,3.484-11.089,3.484-17.174c0-6.084-1.161-11.825-3.484-17.222
			c-2.322-5.397-5.479-10.091-9.47-14.082c-1.155-1.155-2.375-2.232-3.646-3.248c-3.097-2.456-6.524-4.504-10.299-6.126
			C74.399,19.541,68.646,18.385,62.515,18.385z M90.963,50.47c1.624,3.775,2.437,7.79,2.437,12.045c0,4.254-0.813,8.258-2.437,12.01
			s-3.832,7.023-6.623,9.814s-6.063,4.999-9.814,6.623s-7.756,2.437-12.011,2.437s-8.259-0.813-12.011-2.437
			s-7.023-3.832-9.814-6.623s-4.998-6.063-6.622-9.814s-2.437-7.756-2.437-12.01c0-4.255,0.813-8.27,2.437-12.045
			s3.831-7.058,6.622-9.849s6.063-4.999,9.814-6.623s7.756-2.436,12.011-2.436s8.259,0.812,12.011,2.436s7.023,3.832,9.814,6.623
			S89.339,46.695,90.963,50.47z"/>
	</g>
	<g>
		<g>
			<linearGradient id="SVGID_10_" gradientUnits="userSpaceOnUse" x1="101.2148" y1="-37.7856" x2="-31.9692" y2="95.3984">
				<stop  offset="0" style="stop-color:#F2F2F2"/>
				<stop  offset="1" style="stop-color:#C9D9DE"/>
			</linearGradient>
			<path fill="url(#SVGID_10_)" d="M72.098,10.1V0H44.66v12.327c5.646-2.042,11.636-3.078,17.854-3.078
				C65.777,9.249,68.977,9.535,72.098,10.1z"/>
			<linearGradient id="SVGID_11_" gradientUnits="userSpaceOnUse" x1="124.4414" y1="-14.5586" x2="-8.7427" y2="118.6255">
				<stop  offset="0" style="stop-color:#F2F2F2"/>
				<stop  offset="1" style="stop-color:#C9D9DE"/>
			</linearGradient>
			<path fill="url(#SVGID_11_)" d="M72.098,53.594V42.819c-0.379-0.187-0.763-0.369-1.158-0.54c-2.631-1.14-5.387-1.693-8.425-1.693
				c-3.037,0-5.793,0.554-8.425,1.693c-2.725,1.18-5.021,2.725-7.02,4.723c-0.893,0.893-1.689,1.851-2.41,2.879v3.712H72.098z"/>
			<linearGradient id="SVGID_12_" gradientUnits="userSpaceOnUse" x1="120.0664" y1="-18.9341" x2="-13.1176" y2="114.25">
				<stop  offset="0" style="stop-color:#F2F2F2"/>
				<stop  offset="1" style="stop-color:#C9D9DE"/>
			</linearGradient>
			<path fill="url(#SVGID_12_)" d="M95.524,20.787c0.052,0.041,0.105,0.079,0.157,0.121l0.014,0.011l0.014,0.011
				c0.809,0.646,1.591,1.309,2.344,1.982L85.719,0h-4.418v12.674c0.662,0.254,1.32,0.519,1.972,0.8
				C87.703,15.393,91.822,17.854,95.524,20.787z"/>
			<linearGradient id="SVGID_13_" gradientUnits="userSpaceOnUse" x1="136.6738" y1="-2.3271" x2="3.4886" y2="130.858">
				<stop  offset="0" style="stop-color:#F2F2F2"/>
				<stop  offset="1" style="stop-color:#C9D9DE"/>
			</linearGradient>
			<path fill="url(#SVGID_13_)" d="M82.472,53.594c-0.357-0.791-0.746-1.546-1.171-2.266v2.266H82.472z"/>
			<linearGradient id="SVGID_14_" gradientUnits="userSpaceOnUse" x1="112.0488" y1="-26.9517" x2="-21.1353" y2="106.2324">
				<stop  offset="0" style="stop-color:#F2F2F2"/>
				<stop  offset="1" style="stop-color:#C9D9DE"/>
			</linearGradient>
			<path fill="url(#SVGID_14_)" d="M9.335,62.798H0v27.437h17.158c-1.348-2.205-2.551-4.522-3.6-6.945
				C10.789,76.892,9.369,69.998,9.335,62.798z"/>
			<linearGradient id="SVGID_15_" gradientUnits="userSpaceOnUse" x1="134.9248" y1="-4.0752" x2="1.7407" y2="129.1089">
				<stop  offset="0" style="stop-color:#F2F2F2"/>
				<stop  offset="1" style="stop-color:#C9D9DE"/>
			</linearGradient>
			<path fill="url(#SVGID_15_)" d="M44.66,62.798v12.289c0.721,1.023,1.518,1.979,2.41,2.872c1.999,1.999,4.295,3.544,7.019,4.723
				c2.634,1.14,5.39,1.694,8.426,1.694c3.037,0,5.792-0.554,8.427-1.694c0.395-0.171,0.778-0.353,1.156-0.539V62.798H44.66z"/>
			<linearGradient id="SVGID_16_" gradientUnits="userSpaceOnUse" x1="48.2788" y1="113.7891" x2="48.27" y2="113.7979">
				<stop  offset="0" style="stop-color:#F2F2F2"/>
				<stop  offset="1" style="stop-color:#C9D9DE"/>
			</linearGradient>
			<path fill="url(#SVGID_16_)" d="M48.287,113.798L48.287,113.798c-0.008-0.003-0.017-0.006-0.025-0.009
				C48.271,113.792,48.279,113.795,48.287,113.798z"/>
			<linearGradient id="SVGID_17_" gradientUnits="userSpaceOnUse" x1="158.9072" y1="19.9072" x2="25.7231" y2="153.0913">
				<stop  offset="0" style="stop-color:#F2F2F2"/>
				<stop  offset="1" style="stop-color:#C9D9DE"/>
			</linearGradient>
			<path fill="url(#SVGID_17_)" d="M49.626,114.151L49.626,114.151c-0.003,0-0.006-0.001-0.009-0.002c-0.001,0-0.002,0-0.003,0
				l-0.019-0.005l-0.018-0.005l-0.072-0.018c-0.061-0.016-0.129-0.034-0.193-0.05c-0.063-0.017-0.127-0.033-0.191-0.05
				c-0.007-0.001-0.014-0.003-0.02-0.005c-0.166-0.043-0.339-0.089-0.52-0.14c-0.033-0.008-0.064-0.017-0.098-0.024l-0.291-0.078
				l-0.142-0.049c-1.138-0.323-2.271-0.694-3.392-1.101v15.616h27.438V114.86c-3.121,0.566-6.32,0.853-9.583,0.853
				C58.102,115.713,53.766,115.188,49.626,114.151z"/>
			<linearGradient id="SVGID_18_" gradientUnits="userSpaceOnUse" x1="174.502" y1="35.5024" x2="41.3178" y2="168.6865">
				<stop  offset="0" style="stop-color:#F2F2F2"/>
				<stop  offset="1" style="stop-color:#C9D9DE"/>
			</linearGradient>
			<path fill="url(#SVGID_18_)" d="M81.384,112.255c-0.027,0.011-0.056,0.021-0.083,0.03v15.957h16.881l-13.554-12.899
				L81.384,112.255z"/>
			<linearGradient id="SVGID_19_" gradientUnits="userSpaceOnUse" x1="189.0752" y1="50.0752" x2="55.8911" y2="183.2592">
				<stop  offset="0" style="stop-color:#F2F2F2"/>
				<stop  offset="1" style="stop-color:#C9D9DE"/>
			</linearGradient>
			<polygon fill="url(#SVGID_19_)" points="140,100.833 139.249,99.438 128.297,99.438 140,110.563 			"/>
			<linearGradient id="SVGID_20_" gradientUnits="userSpaceOnUse" x1="135.2852" y1="-3.7153" x2="2.1011" y2="129.4688">
				<stop  offset="0" style="stop-color:#F2F2F2"/>
				<stop  offset="1" style="stop-color:#C9D9DE"/>
			</linearGradient>
			<path fill="url(#SVGID_20_)" d="M35.02,108.016l-0.009-0.006l-0.019-0.011l-0.017-0.011l-0.015-0.008l-0.012-0.008l-0.012-0.007
				c-0.055-0.033-0.109-0.066-0.164-0.1c0-0.001-0.001-0.002-0.002-0.002c-0.008-0.005-0.016-0.01-0.023-0.015
				c-0.225-0.138-0.44-0.273-0.647-0.406c-0.019-0.012-0.038-0.023-0.057-0.036c-0.028-0.018-0.055-0.035-0.082-0.053
				c-0.038-0.024-0.075-0.048-0.112-0.072c-0.181-0.116-0.358-0.232-0.533-0.349c-0.027-0.018-0.059-0.038-0.085-0.056l0,0
				c-0.001-0.001-0.003-0.002-0.005-0.003c-0.002-0.002-0.004-0.003-0.006-0.005l-0.012-0.007l-0.012-0.008
				c-0.001-0.001-0.002-0.002-0.003-0.002c-0.003-0.003-0.006-0.004-0.009-0.006v-0.001c-0.015-0.01-0.029-0.02-0.043-0.029
				c-2.973-1.969-5.736-4.223-8.215-6.701c-0.223-0.224-0.442-0.45-0.662-0.678H0v28.804h35.457v-19.961
				c-0.092-0.056-0.186-0.11-0.277-0.167L35.02,108.016z"/>
			<linearGradient id="SVGID_21_" gradientUnits="userSpaceOnUse" x1="170.2559" y1="31.2554" x2="37.0717" y2="164.4395">
				<stop  offset="0" style="stop-color:#F2F2F2"/>
				<stop  offset="1" style="stop-color:#C9D9DE"/>
			</linearGradient>
			<path fill="url(#SVGID_21_)" d="M111.423,83.397l2.596,2.467l4.596,4.37h15.68l-14.77-27.437h-3.829
				c-0.035,7.2-1.454,14.093-4.224,20.49C111.456,83.325,111.438,83.361,111.423,83.397z"/>
			<linearGradient id="SVGID_22_" gradientUnits="userSpaceOnUse" x1="144.2627" y1="5.2622" x2="11.0786" y2="138.4464">
				<stop  offset="0" style="stop-color:#F2F2F2"/>
				<stop  offset="1" style="stop-color:#C9D9DE"/>
			</linearGradient>
			<path fill="url(#SVGID_22_)" d="M84.369,62.798h-3.068v10.851c0.507-0.854,0.968-1.753,1.381-2.707
				C83.786,68.391,84.335,65.722,84.369,62.798z"/>
			<linearGradient id="SVGID_23_" gradientUnits="userSpaceOnUse" x1="85.417" y1="-53.5835" x2="-47.7671" y2="79.6006">
				<stop  offset="0" style="stop-color:#F2F2F2"/>
				<stop  offset="1" style="stop-color:#C9D9DE"/>
			</linearGradient>
			<path fill="url(#SVGID_23_)" d="M24.929,24.844c3.142-3.142,6.668-5.869,10.528-8.155V0H0v53.594h10.07
				c0.686-4.092,1.846-8.057,3.48-11.854C16.317,35.312,20.145,29.627,24.929,24.844z"/>
			<linearGradient id="SVGID_24_" gradientUnits="userSpaceOnUse" x1="173.0479" y1="34.0479" x2="39.8637" y2="167.232">
				<stop  offset="0" style="stop-color:#F2F2F2"/>
				<stop  offset="1" style="stop-color:#C9D9DE"/>
			</linearGradient>
			<polygon fill="url(#SVGID_24_)" points="140,62.798 129.978,62.798 140,81.416 			"/>
			<linearGradient id="SVGID_25_" gradientUnits="userSpaceOnUse" x1="141.9424" y1="2.9424" x2="8.7583" y2="136.1265">
				<stop  offset="0" style="stop-color:#F2F2F2"/>
				<stop  offset="1" style="stop-color:#C9D9DE"/>
			</linearGradient>
			<polygon fill="url(#SVGID_25_)" points="140,53.594 140,0 96.172,0 125.022,53.594 			"/>
		</g>
	</g>
</g>
</svg>
