<?xml version="1.0" encoding="utf-8"?>
<!-- Generator: Adobe Illustrator 15.0.2, SVG Export Plug-In . SVG Version: 6.00 Build 0)  -->
<!DOCTYPE svg PUBLIC "-//W3C//DTD SVG 1.1//EN" "http://www.w3.org/Graphics/SVG/1.1/DTD/svg11.dtd">
<svg version="1.1" id="Calque_1" xmlns="http://www.w3.org/2000/svg" xmlns:xlink="http://www.w3.org/1999/xlink" x="0px" y="0px"
	 width="140px" height="140px" viewBox="0 0 140 140" enable-background="new 0 0 140 140" xml:space="preserve">
<g>
	<g>
		<linearGradient id="SVGID_1_" gradientUnits="userSpaceOnUse" x1="39.7339" y1="15.688" x2="39.7339" y2="15.688">
			<stop  offset="0" style="stop-color:#F2F2F2"/>
			<stop  offset="1" style="stop-color:#C9D9DE"/>
		</linearGradient>
		<path fill="url(#SVGID_1_)" d="M39.733,15.688"/>
	</g>
	<g>
		<linearGradient id="SVGID_2_" gradientUnits="userSpaceOnUse" x1="94.9795" y1="-3.1201" x2="-2.0407" y2="93.9001">
			<stop  offset="0" style="stop-color:#F2F2F2"/>
			<stop  offset="1" style="stop-color:#C9D9DE"/>
		</linearGradient>
		<path fill="url(#SVGID_2_)" d="M69.111,0.977c-8.666,0-16.813,1.672-24.344,4.782c5.476,13.314,23.302,56.862,23.302,56.862
			c0.573,1.4,1.569,1.425,2.212,0.057L96.414,7.125C88.133,3.203,78.891,0.977,69.111,0.977z"/>
	</g>
	<g>
		<linearGradient id="SVGID_3_" gradientUnits="userSpaceOnUse" x1="135.8027" y1="37.5942" x2="38.5062" y2="134.8907">
			<stop  offset="0" style="stop-color:#F2F2F2"/>
			<stop  offset="1" style="stop-color:#C9D9DE"/>
		</linearGradient>
		<path fill="url(#SVGID_3_)" d="M103.244,11.866L77.111,67.423c-0.645,1.369-0.064,3.042,1.288,3.72l54.722,27.417
			C137.463,89.933,140,80.231,140,69.911C140,44.32,124.956,22.165,103.244,11.866z"/>
	</g>
	<g>
		<linearGradient id="SVGID_4_" gradientUnits="userSpaceOnUse" x1="118.6123" y1="20.3872" x2="20.1999" y2="118.7996">
			<stop  offset="0" style="stop-color:#F2F2F2"/>
			<stop  offset="1" style="stop-color:#C9D9DE"/>
		</linearGradient>
		<path fill="url(#SVGID_4_)" d="M39.733,15.688C16.484,25.335,0,48.26,0,74.945c0,35.375,28.704,64.078,64.077,64.078
			c25.036,0,46.651-14.468,57.181-35.414L66.536,76.178c-1.352-0.678-2.929-2.377-3.503-3.776
			C63.033,72.401,45.209,28.988,39.733,15.688z"/>
	</g>
</g>
</svg>
