<?xml version="1.0" encoding="utf-8"?>
<!-- Generator: Adobe Illustrator 15.0.2, SVG Export Plug-In . SVG Version: 6.00 Build 0)  -->
<!DOCTYPE svg PUBLIC "-//W3C//DTD SVG 1.1//EN" "http://www.w3.org/Graphics/SVG/1.1/DTD/svg11.dtd">
<svg version="1.1" id="Calque_1" xmlns="http://www.w3.org/2000/svg" xmlns:xlink="http://www.w3.org/1999/xlink" x="0px" y="0px"
	 width="140px" height="140px" viewBox="0 0 140 140" enable-background="new 0 0 140 140" xml:space="preserve">
<g>
	<g>
		<g>
			<g>
				<linearGradient id="SVGID_1_" gradientUnits="userSpaceOnUse" x1="0.5005" y1="139.501" x2="138.1123" y2="1.8892">
					<stop  offset="0" style="stop-color:#C9D9DE"/>
					<stop  offset="1" style="stop-color:#F2F2F2"/>
				</linearGradient>
				<path fill="url(#SVGID_1_)" d="M0,0v140h140V0H0z M133.065,133.001H6.935V7h126.13V133.001z"/>
			</g>
		</g>
		<linearGradient id="SVGID_2_" gradientUnits="userSpaceOnUse" x1="17.2803" y1="156.2803" x2="154.892" y2="18.6685">
			<stop  offset="0" style="stop-color:#C9D9DE"/>
			<stop  offset="1" style="stop-color:#F2F2F2"/>
		</linearGradient>
		<path fill="url(#SVGID_2_)" d="M9.969,129.5v-20.563c0,0,14.954-38.938,31.857-38.938c16.904,0,70,59.5,70,59.5H9.969z"/>
		<linearGradient id="SVGID_3_" gradientUnits="userSpaceOnUse" x1="35.0781" y1="174.0781" x2="172.6899" y2="36.4664">
			<stop  offset="0" style="stop-color:#C9D9DE"/>
			<stop  offset="1" style="stop-color:#F2F2F2"/>
		</linearGradient>
		<path fill="url(#SVGID_3_)" d="M73.845,85.369c0.496-0.5,43.616,44.131,43.616,44.131h12.137v-15.094
			c0,0-29.474-38.391-38.034-38.391S73.35,85.87,73.845,85.369z"/>
		<g>
			<linearGradient id="SVGID_4_" gradientUnits="userSpaceOnUse" x1="-0.9761" y1="138.0244" x2="136.6357" y2="0.4126">
				<stop  offset="0" style="stop-color:#C9D9DE"/>
				<stop  offset="1" style="stop-color:#F2F2F2"/>
			</linearGradient>
			<ellipse fill="url(#SVGID_4_)" cx="104.892" cy="32.156" rx="17.988" ry="18.156"/>
		</g>
	</g>
</g>
</svg>
