<?xml version="1.0" encoding="utf-8"?>
<!-- Generator: Adobe Illustrator 15.0.2, SVG Export Plug-In . SVG Version: 6.00 Build 0)  -->
<!DOCTYPE svg PUBLIC "-//W3C//DTD SVG 1.1//EN" "http://www.w3.org/Graphics/SVG/1.1/DTD/svg11.dtd">
<svg version="1.1" id="Calque_1" xmlns="http://www.w3.org/2000/svg" xmlns:xlink="http://www.w3.org/1999/xlink" x="0px" y="0px"
	 width="80px" height="80px" viewBox="0 0 80 80" enable-background="new 0 0 80 80" xml:space="preserve">
<g>
	<path fill="#FFFBFF" d="M31.396,27.516v-0.133c0-0.536,0.133-1.472,0.268-1.874c-2.408,0.134-4.415,0-5.887-0.268
		c-4.148-0.803-9.098-2.944-9.098-8.162c0-4.015,3.88-7.627,7.492-8.831c0.401-0.134,1.471-0.4,1.471-0.134
		c0,0.267-0.535,0.402-1.07,0.669c-3.21,1.472-5.353,4.147-5.353,7.359c0,4.281,3.88,7.091,8.162,7.894
		c1.337,0.268,2.943,0.401,4.683,0.401c1.205-3.613,4.282-6.69,6.556-8.428c5.084-3.88,11.774-7.226,16.726-7.226
		c2.942,0,4.014,1.873,3.881,3.612c-0.27,3.479-4.549,6.154-8.563,8.162c-3.88,1.874-8.43,3.479-11.506,4.281
		c-0.535,1.07-0.803,2.274-0.803,3.077c0,2.007,1.07,3.078,2.943,3.078h0.136c1.738,0,6.289-0.937,12.178-4.951
		c2.539-1.739,6.02-4.549,8.16-6.422c0.804-0.669,1.203-0.803,1.473-0.535c0.268,0.401-0.135,0.937-1.07,1.739
		c-1.738,1.606-5.486,4.817-7.895,6.422C48.656,30.993,43.172,33,38.622,33C33.67,33.002,31.396,30.861,31.396,27.516z
		 M49.057,19.354c3.346-2.274,5.354-5.083,5.485-6.957c0.135-1.204-0.399-1.873-1.604-1.873c-1.203,0-3.211,1.338-5.888,3.88
		c-2.141,2.007-5.485,6.289-7.092,8.964C42.635,22.699,46.248,21.228,49.057,19.354z"/>
</g>
</svg>
