<?xml version="1.0" encoding="utf-8"?>
<!-- Generator: Adobe Illustrator 15.0.2, SVG Export Plug-In . SVG Version: 6.00 Build 0)  -->
<!DOCTYPE svg PUBLIC "-//W3C//DTD SVG 1.1//EN" "http://www.w3.org/Graphics/SVG/1.1/DTD/svg11.dtd">
<svg version="1.1" id="Calque_1" xmlns="http://www.w3.org/2000/svg" xmlns:xlink="http://www.w3.org/1999/xlink" x="0px" y="0px"
	 width="205px" height="205px" viewBox="0 0 205 205" enable-background="new 0 0 205 205" xml:space="preserve">
<g>
	<path fill="#FFFBFF" d="M67.695,130.371v-0.537c0-2.164,0.537-5.951,1.084-7.578c-9.739,0.541-17.855,0-23.809-1.083
		c-16.775-3.25-36.792-11.906-36.792-33.008c0-16.238,15.69-30.844,30.297-35.714c1.621-0.541,5.95-1.617,5.95-0.541
		c0,1.078-2.165,1.625-4.329,2.705c-12.981,5.952-21.646,16.771-21.646,29.76c0,17.312,15.691,28.674,33.007,31.924
		c5.406,1.086,11.903,1.623,18.939,1.623c4.874-14.612,17.318-27.057,26.514-34.086c20.56-15.691,47.617-29.221,67.64-29.221
		c11.899,0,16.231,7.575,15.694,14.607c-1.09,14.069-18.396,24.886-34.627,33.008c-15.691,7.581-34.091,14.069-46.531,17.312
		c-2.165,4.329-3.249,9.194-3.249,12.444c0,8.116,4.327,12.448,11.901,12.448h0.55c7.029,0,25.434-3.787,49.248-20.022
		c10.268-7.034,24.348-18.396,33-25.971c3.255-2.705,4.866-3.248,5.96-2.164c1.086,1.621-0.549,3.79-4.329,7.034
		c-7.025,6.493-22.183,19.479-31.93,25.971c-22.74,15.153-44.92,23.27-63.32,23.27C76.892,152.559,67.695,143.901,67.695,130.371z
		 M139.117,97.365c13.53-9.196,21.654-20.556,22.184-28.135c0.549-4.87-1.615-7.575-6.489-7.575c-4.865,0-12.985,5.41-23.811,15.69
		c-8.656,8.118-22.183,25.434-28.68,36.253C113.146,110.894,127.759,104.943,139.117,97.365z"/>
</g>
</svg>
