<?xml version="1.0" encoding="utf-8"?>
<!-- Generator: Adobe Illustrator 15.0.2, SVG Export Plug-In . SVG Version: 6.00 Build 0)  -->
<!DOCTYPE svg PUBLIC "-//W3C//DTD SVG 1.1//EN" "http://www.w3.org/Graphics/SVG/1.1/DTD/svg11.dtd">
<svg version="1.1" id="Calque_1" xmlns="http://www.w3.org/2000/svg" xmlns:xlink="http://www.w3.org/1999/xlink" x="0px" y="0px"
	 width="92px" height="56px" viewBox="0 0 92 56" enable-background="new 0 0 92 56" xml:space="preserve">
<g>
	<path fill="#FFFBFF" d="M36.536,28.824v-0.133c0-0.539,0.133-1.483,0.271-1.889c-2.429,0.135-4.453,0-5.937-0.271
		c-4.184-0.81-9.175-2.969-9.175-8.232c0-4.049,3.913-7.691,7.556-8.905c0.403-0.135,1.482-0.403,1.482-0.135
		c0,0.269-0.539,0.405-1.08,0.675c-3.237,1.484-5.397,4.182-5.397,7.421c0,4.316,3.913,7.151,8.231,7.96
		c1.348,0.271,2.968,0.405,4.722,0.405c1.216-3.644,4.318-6.747,6.611-8.5c5.127-3.912,11.873-7.286,16.867-7.286
		c2.968,0,4.046,1.889,3.914,3.643c-0.272,3.509-4.588,6.206-8.635,8.231c-3.913,1.891-8.502,3.508-11.604,4.316
		c-0.539,1.08-0.81,2.295-0.81,3.104c0,2.023,1.079,3.104,2.967,3.104h0.138c1.753,0,6.342-0.943,12.279-4.994
		c2.561-1.753,6.072-4.588,8.229-6.476c0.812-0.674,1.215-0.81,1.486-0.539c0.271,0.404-0.138,0.945-1.079,1.753
		c-1.752,1.619-5.532,4.858-7.962,6.476c-5.67,3.779-11.201,5.803-15.79,5.803C38.828,34.357,36.536,32.198,36.536,28.824z
		 M54.344,20.595c3.375-2.294,5.4-5.125,5.533-7.016c0.135-1.214-0.403-1.89-1.619-1.89c-1.213,0-3.238,1.35-5.938,3.913
		c-2.157,2.024-5.531,6.343-7.151,9.039C47.868,23.968,51.514,22.484,54.344,20.595z"/>
</g>
</svg>
