<?xml version="1.0" encoding="utf-8"?>
<!-- Generator: Adobe Illustrator 15.0.2, SVG Export Plug-In . SVG Version: 6.00 Build 0)  -->
<!DOCTYPE svg PUBLIC "-//W3C//DTD SVG 1.1//EN" "http://www.w3.org/Graphics/SVG/1.1/DTD/svg11.dtd">
<svg version="1.1" id="Calque_1" xmlns="http://www.w3.org/2000/svg" xmlns:xlink="http://www.w3.org/1999/xlink" x="0px" y="0px"
	 width="80px" height="28px" viewBox="0 0 80 28" enable-background="new 0 0 80 28" xml:space="preserve">
<g id="Effet_NoPatch">
	
		<linearGradient id="SVGID_1_" gradientUnits="userSpaceOnUse" x1="997.2656" y1="-812.4639" x2="1051.4775" y2="-812.4639" gradientTransform="matrix(1 0 0 -1 -976.8799 -803.4961)">
		<stop  offset="0" style="stop-color:#0098C9"/>
		<stop  offset="0.0554" style="stop-color:#32ABD2"/>
		<stop  offset="0.1239" style="stop-color:#69C0DD"/>
		<stop  offset="0.1907" style="stop-color:#97D2E6"/>
		<stop  offset="0.2542" style="stop-color:#BBDFEC"/>
		<stop  offset="0.3136" style="stop-color:#D4E9F1"/>
		<stop  offset="0.3672" style="stop-color:#E4EFF4"/>
		<stop  offset="0.41" style="stop-color:#E9F1F5"/>
		<stop  offset="0.4693" style="stop-color:#E3EFF4"/>
		<stop  offset="0.547" style="stop-color:#D3E9F1"/>
		<stop  offset="0.6349" style="stop-color:#B8DEEC"/>
		<stop  offset="0.7303" style="stop-color:#92D0E5"/>
		<stop  offset="0.8318" style="stop-color:#61BEDC"/>
		<stop  offset="0.9367" style="stop-color:#27A8D1"/>
		<stop  offset="1" style="stop-color:#0099CA"/>
	</linearGradient>
	<path fill="url(#SVGID_1_)" d="M20.386,12.669c0,0,22.716-13.346,40.634-12.196c18.66,1.197,12.809,16.189,12.365,17.06
		c0,0,0.59-11.181-12.365-12.923C43.646,2.868,20.386,12.669,20.386,12.669z"/>
</g>
<g id="Calque_1_1_">
	<g>
		<path fill="#FFFBFF" d="M4.714,14.925l2.858,8.769l3.059-8.769h2.254l2.777,8.769l3.08-8.769h2.917l-5.534,13.111h-2.576
			l-2.536-7.652l-2.938,7.652H5.479c0,0-3.453-9.79-3.868-10.863C0.887,15.303,0,14.925,0,14.925H4.714z"/>
		<path fill="#FFFBFF" d="M43.238,14.925c0.422,0,4.566-0.083,5.011-0.083c3.36,0,5.856,0.083,7.587,2.213
			c1.107,1.344,1.288,3.08,1.288,4.032c0,3.228-1.812,5.459-4.347,6.39c-1.289,0.477-3.021,0.562-5.012,0.562h-4.527V14.925
			L43.238,14.925z M46.921,26.236h0.865c2.758,0,5.394,0,5.394-5.004c0-4.633-2.838-4.633-4.469-4.633
			c-0.502,0-1.188,0.021-1.79,0.021V26.236L46.921,26.236z"/>
		<polygon fill="#FFFBFF" points="67.137,16.891 67.137,18.561 61.779,18.561 61.779,21.374 66.555,21.374 66.555,23.008 
			61.779,23.008 61.779,26.26 67.357,26.26 67.357,28.037 58.65,28.037 58.65,16.891 		"/>
		<polygon fill="#FFFBFF" points="71.202,16.891 73.904,24.678 77.035,16.891 79.566,16.891 74.266,28.037 72.006,28.037 
			67.645,16.891 		"/>
		<path fill="#FFFBFF" d="M76.936,26.932c0-0.693,0.604-1.218,1.369-1.218c0.758,0,1.357,0.522,1.357,1.218
			c0,0.707-0.6,1.228-1.357,1.228C77.536,28.157,76.936,27.637,76.936,26.932z M78.305,28.402c0.913,0,1.695-0.623,1.695-1.471
			c0-0.842-0.782-1.464-1.695-1.464c-0.925,0-1.705,0.622-1.705,1.464C76.6,27.779,77.38,28.402,78.305,28.402z M77.948,27.048
			h0.338l0.511,0.731h0.328l-0.551-0.742c0.283-0.031,0.502-0.162,0.502-0.467c0-0.334-0.227-0.48-0.684-0.48h-0.736v1.689h0.292
			V27.048z M77.948,26.831v-0.522h0.399c0.202,0,0.422,0.039,0.422,0.248c0,0.26-0.226,0.274-0.474,0.274H77.948z"/>
		<path fill="#FFFBFF" d="M38.191,16.891c1.059,0,1.905,0.221,2.542,0.666c0.676,0.479,1.013,1.187,1.013,2.123
			c0,0.987-0.403,1.688-1.208,2.098c-0.264,0.144-0.656,0.279-1.181,0.416c0.614,0.113,1.109,0.295,1.487,0.545
			c0.743,0.5,1.116,1.22,1.116,2.154c0,1.15-0.475,2.002-1.415,2.558c-0.619,0.362-1.352,0.544-2.193,0.544h-5.468V16.891H38.191z
			 M36.06,21.773h0.642c0.614,0,1.06-0.104,1.335-0.31c0.182-0.142,0.33-0.36,0.446-0.665c0.115-0.303,0.174-0.631,0.174-0.98
			c0-1.151-0.584-1.729-1.749-1.729H36.06V21.773z M36.06,26.792h1.005c1.123,0,1.684-0.599,1.684-1.8
			c0-1.362-0.656-2.045-1.973-2.045H36.06V26.792z"/>
		<polygon fill="#FFFBFF" points="31.001,16.891 31.001,18.561 25.647,18.561 25.647,21.374 30.421,21.374 30.421,23.008 
			25.647,23.008 25.647,26.26 31.224,26.26 31.224,28.037 22.517,28.037 22.517,16.891 		"/>
	</g>
	<g>
		<path fill="#FFFBFF" d="M3.319,10.227v2.739H1.687V5.525c1.088-0.038,1.724-0.057,1.908-0.057c1.452,0,2.513,0.181,3.185,0.542
			C7.452,6.371,7.788,6.935,7.788,7.7c0,1.709-1.243,2.563-3.728,2.563C3.875,10.263,3.628,10.251,3.319,10.227z M3.319,6.668v2.385
			c0.276,0.022,0.494,0.036,0.653,0.036c0.745,0,1.289-0.102,1.632-0.303c0.342-0.203,0.514-0.53,0.514-0.985
			c0-0.772-0.768-1.159-2.304-1.159C3.643,6.643,3.478,6.652,3.319,6.668z"/>
		<path fill="#FFFBFF" d="M8.466,10.232c0-0.831,0.296-1.506,0.888-2.027c0.592-0.522,1.374-0.783,2.344-0.783
			c1.021,0,1.814,0.25,2.379,0.752c0.564,0.502,0.847,1.188,0.847,2.059c0,0.868-0.288,1.558-0.863,2.07
			c-0.575,0.512-1.363,0.768-2.363,0.768c-1.021,0-1.815-0.258-2.382-0.774S8.466,11.09,8.466,10.232z M10.098,10.232
			c0,1.2,0.534,1.8,1.601,1.8c0.49,0,0.877-0.155,1.164-0.467c0.287-0.313,0.43-0.756,0.43-1.333c0-1.183-0.531-1.774-1.594-1.774
			c-0.49,0-0.878,0.157-1.167,0.468C10.242,9.237,10.098,9.673,10.098,10.232z"/>
		<path fill="#FFFBFF" d="M22.705,13.069h-0.571l-1.845-3.345l-1.839,3.345h-0.577l-2.536-5.546h1.651l1.349,3.249l1.645-3.249
			h0.565l1.701,3.269l1.456-3.269h1.544L22.705,13.069z"/>
		<path fill="#FFFBFF" d="M32.124,10.635h-4.801c0.029,0.434,0.213,0.771,0.552,1.012s0.795,0.362,1.368,0.362
			c0.716,0,1.26-0.151,1.632-0.453l0.609,0.971c-0.552,0.363-1.376,0.544-2.473,0.544c-1.025,0-1.836-0.243-2.432-0.729
			c-0.596-0.486-0.895-1.165-0.895-2.036c0-0.857,0.328-1.553,0.982-2.084c0.654-0.531,1.44-0.797,2.357-0.797
			c0.975,0,1.757,0.234,2.347,0.706c0.59,0.472,0.885,1.071,0.885,1.8C32.256,10.083,32.212,10.318,32.124,10.635z M27.379,9.677
			h3.301c-0.109-0.795-0.653-1.194-1.632-1.194C28.153,8.483,27.597,8.882,27.379,9.677z"/>
		<path fill="#FFFBFF" d="M37.396,8.706c-0.28-0.148-0.588-0.223-0.923-0.223c-0.364,0-0.688,0.134-0.97,0.402
			c-0.282,0.267-0.423,0.594-0.423,0.981v3.1h-1.568V7.523h1.568v0.499c0.439-0.401,1.023-0.599,1.751-0.599
			c0.536,0,0.946,0.065,1.23,0.197L37.396,8.706z"/>
		<path fill="#FFFBFF" d="M44.952,10.635H40.15c0.029,0.434,0.214,0.771,0.553,1.012s0.795,0.362,1.367,0.362
			c0.716,0,1.26-0.151,1.633-0.453l0.607,0.971c-0.554,0.363-1.377,0.544-2.475,0.544c-1.023,0-1.836-0.243-2.432-0.729
			c-0.597-0.486-0.895-1.165-0.895-2.036c0-0.857,0.327-1.553,0.982-2.084c0.654-0.532,1.438-0.797,2.354-0.797
			c0.977,0,1.756,0.234,2.346,0.706c0.594,0.472,0.889,1.071,0.889,1.8C45.084,10.083,45.04,10.318,44.952,10.635z M40.207,9.677
			h3.301c-0.107-0.795-0.652-1.194-1.632-1.194C40.98,8.483,40.425,8.882,40.207,9.677z"/>
		<path fill="#FFFBFF" d="M50.663,12.967v-0.33c-0.13,0.116-0.351,0.216-0.659,0.303s-0.63,0.129-0.96,0.129
			c-0.938,0-1.675-0.241-2.213-0.722c-0.537-0.481-0.808-1.152-0.808-2.013s0.31-1.561,0.927-2.102
			C47.566,7.69,48.341,7.42,49.27,7.42c0.51,0,0.977,0.084,1.396,0.254v-2.18l1.565-0.305v7.779L50.663,12.967L50.663,12.967
			L50.663,12.967z M50.663,8.824c-0.335-0.216-0.685-0.325-1.05-0.325c-0.627,0-1.109,0.155-1.448,0.466
			c-0.339,0.31-0.509,0.754-0.509,1.334c0,1.133,0.674,1.698,2.021,1.698c0.15,0,0.335-0.037,0.556-0.109
			c0.222-0.073,0.363-0.147,0.433-0.222L50.663,8.824L50.663,8.824z"/>
		<path fill="#FFFBFF" d="M58.072,12.777l-0.225,0.255h-0.563v-4.82l0.999-0.194v1.618c0.266-0.131,0.557-0.198,0.869-0.198
			c0.625,0,1.132,0.161,1.515,0.481c0.384,0.32,0.575,0.73,0.575,1.231c0,0.58-0.192,1.039-0.579,1.377
			c-0.388,0.337-0.909,0.506-1.567,0.506C58.698,13.032,58.357,12.947,58.072,12.777z M58.284,10.327v1.808
			c0.146,0.141,0.345,0.21,0.595,0.21c0.482,0,0.823-0.092,1.023-0.278c0.201-0.185,0.303-0.482,0.303-0.889
			c0-0.704-0.415-1.055-1.246-1.055C58.663,10.124,58.438,10.192,58.284,10.327z"/>
		<path fill="#FFFBFF" d="M63.941,13.524c-0.106,0.231-0.336,0.423-0.688,0.574c-0.353,0.153-0.758,0.229-1.226,0.229v-0.715
			c0.771,0,1.154-0.156,1.154-0.468c0-0.207-0.104-0.524-0.317-0.952l-1.341-2.688h1.035l1.166,2.394l1.051-2.394h1.033
			L63.941,13.524z"/>
	</g>
</g>
</svg>
