<?xml version="1.0" encoding="utf-8"?>
<!-- Generator: Adobe Illustrator 15.0.2, SVG Export Plug-In . SVG Version: 6.00 Build 0)  -->
<!DOCTYPE svg PUBLIC "-//W3C//DTD SVG 1.1//EN" "http://www.w3.org/Graphics/SVG/1.1/DTD/svg11.dtd">
<svg version="1.1" id="Calque_1" xmlns="http://www.w3.org/2000/svg" xmlns:xlink="http://www.w3.org/1999/xlink" x="0px" y="0px"
	 width="320px" height="36px" viewBox="0 0 320 36" enable-background="new 0 0 320 36" xml:space="preserve">
<g id="Effet_NoPatch">
</g>
<rect x="240" opacity="0.08" enable-background="new    " width="79" height="36"/>
<g>
	<path fill="#1F66BE" d="M240.125,34.999v1h-80c0,0,0,0.65,0-1v-28c0-1.649,1.352-3,3-3h74c1.65,0,3,1.351,3,3V34.999z"/>
	<g opacity="0.9">
		<path fill="#FFFFFE" d="M239.125,33.999c0,1.65,0,2,0,2h-78c0,0,0-0.35,0-2v-26c0-1.649,1.352-3,3-3h72c1.65,0,3,1.351,3,3V33.999
			z"/>
	</g>
	<path fill="#E65E84" d="M238.125,32.999c0,1.65,0,3,0,3h-76c0,0,0-1.35,0-3v-24c0-1.649,1.352-3,3-3h70c1.65,0,3,1.351,3,3V32.999z
		"/>
	
		<linearGradient id="SVGID_1_" gradientUnits="userSpaceOnUse" x1="1704.9248" y1="-1414.4971" x2="1704.9248" y2="-1384.4966" gradientTransform="matrix(1 0 0 -1 -1504.7998 -1378.498)">
		<stop  offset="0" style="stop-color:#FFFFFE;stop-opacity:0.4"/>
		<stop  offset="1" style="stop-color:#FFFFFE;stop-opacity:0"/>
	</linearGradient>
	<path fill="url(#SVGID_1_)" d="M238.125,32.999c0,1.65,0,3,0,3h-76c0,0,0-1.35,0-3v-24c0-1.648,1.352-3,3-3h70c1.65,0,3,1.352,3,3
		V32.999z"/>
</g>
<g id="Effet_NoPatch_1_">
</g>
<g>
	<path fill="#1F66BE" d="M160.125,34.999v1h-80c0,0,0,0.65,0-1v-28c0-1.65,1.352-3,3-3h74c1.65,0,3,1.35,3,3V34.999z"/>
	<g opacity="0.9">
		<path fill="#FFFFFE" d="M159.125,33.999c0,1.65,0,2,0,2h-78c0,0,0-0.35,0-2v-26c0-1.65,1.352-3,3-3h72c1.65,0,3,1.35,3,3V33.999z"
			/>
	</g>
	<path fill="#E65E84" d="M158.125,32.999c0,1.65,0,3,0,3h-76c0,0,0-1.35,0-3v-24c0-1.65,1.352-3,3-3h70c1.65,0,3,1.35,3,3V32.999z"
		/>
	
		<linearGradient id="SVGID_2_" gradientUnits="userSpaceOnUse" x1="1624.9248" y1="-1414.4971" x2="1624.9248" y2="-1384.4971" gradientTransform="matrix(1 0 0 -1 -1504.7998 -1378.498)">
		<stop  offset="0" style="stop-color:#FFFFFE;stop-opacity:0.4"/>
		<stop  offset="1" style="stop-color:#FFFFFE;stop-opacity:0"/>
	</linearGradient>
	<path fill="url(#SVGID_2_)" d="M158.125,32.999c0,1.65,0,3,0,3h-76c0,0,0-1.35,0-3v-24c0-1.648,1.352-3,3-3h70c1.65,0,3,1.352,3,3
		V32.999z"/>
</g>
</svg>
