<?xml version="1.0" encoding="utf-8"?>
<!-- Generator: Adobe Illustrator 15.0.2, SVG Export Plug-In . SVG Version: 6.00 Build 0)  -->
<!DOCTYPE svg PUBLIC "-//W3C//DTD SVG 1.1//EN" "http://www.w3.org/Graphics/SVG/1.1/DTD/svg11.dtd">
<svg version="1.1" id="Calque_1" xmlns="http://www.w3.org/2000/svg" xmlns:xlink="http://www.w3.org/1999/xlink" x="0px" y="0px"
	 width="320px" height="36px" viewBox="0 0 320 36" enable-background="new 0 0 320 36" xml:space="preserve">
<g id="Effet_NoPatch">
</g>
<polygon fill="#F01B57" points="0,0 70,0 78,36 8,36 "/>
<linearGradient id="SVGID_1_" gradientUnits="userSpaceOnUse" x1="2709.9602" y1="2480.5176" x2="2709.9602" y2="2514.5176" gradientTransform="matrix(1 0 0 1 -2670.959 -2479.5176)">
	<stop  offset="0" style="stop-color:#D31147"/>
	<stop  offset="1" style="stop-color:#F01B57"/>
</linearGradient>
<polygon fill="url(#SVGID_1_)" points="1,1 69,1 77,35 9,35 "/>
<polygon fill="#F01B57" points="80,0 150,0 158,36 88,36 "/>
<linearGradient id="SVGID_2_" gradientUnits="userSpaceOnUse" x1="119.0002" y1="34.834" x2="119.0002" y2="1.0554">
	<stop  offset="0" style="stop-color:#FFFFFE"/>
	<stop  offset="1" style="stop-color:#FFFFFE;stop-opacity:0"/>
</linearGradient>
<polygon fill="url(#SVGID_2_)" points="81,1 149,1 157,35 89,35 "/>
<polygon fill="#F01B57" points="160,0 230,0 238,36 168,36 "/>
<linearGradient id="SVGID_3_" gradientUnits="userSpaceOnUse" x1="199.0002" y1="34.834" x2="199.0002" y2="1.0554">
	<stop  offset="0" style="stop-color:#FFFFFE"/>
	<stop  offset="1" style="stop-color:#FFFFFE;stop-opacity:0"/>
</linearGradient>
<polygon fill="url(#SVGID_3_)" points="161,1 229,1 237,35 169,35 "/>
</svg>
