<?xml version="1.0" encoding="utf-8"?>
<!-- Generator: Adobe Illustrator 15.0.2, SVG Export Plug-In . SVG Version: 6.00 Build 0)  -->
<!DOCTYPE svg PUBLIC "-//W3C//DTD SVG 1.1//EN" "http://www.w3.org/Graphics/SVG/1.1/DTD/svg11.dtd">
<svg version="1.1" id="Calque_1" xmlns="http://www.w3.org/2000/svg" xmlns:xlink="http://www.w3.org/1999/xlink" x="0px" y="0px"
	 width="36px" height="48px" viewBox="0 0 36 48" enable-background="new 0 0 36 48" xml:space="preserve">
<path fill="#FFF5F5" d="M18,0c-3.782,0-6.854,3.002-6.987,6.75H11v34.5h0.013C11.146,44.999,14.218,48,18,48
	c3.781,0,6.854-3.001,6.986-6.75H25V6.75h-0.014C24.854,3.002,21.781,0,18,0z"/>
<linearGradient id="SVGID_1_" gradientUnits="userSpaceOnUse" x1="240.8379" y1="1497.4805" x2="240.8379" y2="1511.5649" gradientTransform="matrix(4.489659e-011 -1 1 4.489659e-011 -1486.4805 264.8379)">
	<stop  offset="0" style="stop-color:#FFF5F5"/>
	<stop  offset="1" style="stop-color:#DFFFEF;stop-opacity:0.3"/>
</linearGradient>
<path fill="url(#SVGID_1_)" d="M12,7.126l0.012-0.341C12.127,3.541,14.757,1,18,1s5.873,2.541,5.988,5.785L24,7.034v33.84
	l-0.012,0.341C23.873,44.459,21.243,47,18,47s-5.873-2.541-5.988-5.785L12,40.966V7.126 M11,6.75v34.5h0.013
	C11.146,44.999,14.219,48,18,48s6.854-3.001,6.986-6.75H25V6.75h-0.014C24.854,3.002,21.781,0,18,0s-6.854,3.002-6.987,6.75H11
	L11,6.75z"/>
<linearGradient id="SVGID_2_" gradientUnits="userSpaceOnUse" x1="240.8379" y1="1497.4805" x2="240.8379" y2="1511.5667" gradientTransform="matrix(4.489659e-011 -1 1 4.489659e-011 -1486.4805 264.8379)">
	<stop  offset="0" style="stop-color:#000000;stop-opacity:0.5"/>
	<stop  offset="1" style="stop-color:#FFF5F5;stop-opacity:0"/>
</linearGradient>
<path fill="url(#SVGID_2_)" d="M18,0c-3.782,0-6.854,3.002-6.987,6.75H11v34.5h0.013C11.146,44.999,14.218,48,18,48
	c3.781,0,6.854-3.001,6.986-6.75H25V6.75h-0.014C24.854,3.002,21.781,0,18,0z"/>
</svg>
