<?xml version="1.0" encoding="utf-8"?>
<!-- Generator: Adobe Illustrator 15.0.2, SVG Export Plug-In . SVG Version: 6.00 Build 0)  -->
<!DOCTYPE svg PUBLIC "-//W3C//DTD SVG 1.1//EN" "http://www.w3.org/Graphics/SVG/1.1/DTD/svg11.dtd">
<svg version="1.1" id="Calque_1" xmlns="http://www.w3.org/2000/svg" xmlns:xlink="http://www.w3.org/1999/xlink" x="0px" y="0px"
	 width="36px" height="48px" viewBox="6 -6 36 48" enable-background="new 6 -6 36 48" xml:space="preserve">
<path opacity="0.1" enable-background="new    " d="M16.503,5.501V5.456V5.501z"/>
<path fill="#42608C" d="M25.497-3.497v34c0,1.657,1.343,3,3,3c1.656,0,3-1.343,3-3v-34c0-1.656-1.344-3-3-3
	C26.84-6.497,25.497-5.153,25.497-3.497z"/>
<path fill="#EEEBE8" d="M25.497-3.497v34c0,1.656,1.343,3,3,3v-40C26.84-6.497,25.497-5.153,25.497-3.497z"/>
<g opacity="0.1">
	<polygon points="25.497,8.696 25.497,11.985 31.497,18.335 31.481,15.039 	"/>
	<path d="M25.497,27.986l4.707,4.979c0.648-0.45,1.105-1.151,1.243-1.965l-5.95-6.305V27.986z"/>
	<path d="M26.775-5.948c-0.649,0.457-1.103,1.166-1.231,1.984l5.953,6.299l-0.016-3.296L26.775-5.948z"/>
</g>
</svg>
