<?xml version="1.0" encoding="utf-8"?>
<!-- Generator: Adobe Illustrator 15.0.2, SVG Export Plug-In . SVG Version: 6.00 Build 0)  -->
<!DOCTYPE svg PUBLIC "-//W3C//DTD SVG 1.1//EN" "http://www.w3.org/Graphics/SVG/1.1/DTD/svg11.dtd">
<svg version="1.1" id="Calque_1" xmlns="http://www.w3.org/2000/svg" xmlns:xlink="http://www.w3.org/1999/xlink" x="0px" y="0px"
	 width="36px" height="48px" viewBox="6 -6 36 48" enable-background="new 6 -6 36 48" xml:space="preserve">
<path fill="#FFF5F5" d="M24-6c-3.782,0-6.854,3.002-6.986,6.75H17v34.5h0.014C17.146,38.999,20.218,42,24,42
	c3.781,0,6.854-3.001,6.986-6.75H31V0.75h-0.014C30.854-2.998,27.781-6,24-6z"/>
<linearGradient id="SVGID_1_" gradientUnits="userSpaceOnUse" x1="642.7988" y1="-1175.8804" x2="642.7988" y2="-1189.9648" gradientTransform="matrix(4.489659e-011 -1 -1 -4.489659e-011 -1158.8799 660.7988)">
	<stop  offset="0" style="stop-color:#FFF5F5"/>
	<stop  offset="1" style="stop-color:#DFFFEF;stop-opacity:0.3"/>
</linearGradient>
<path fill="url(#SVGID_1_)" d="M18,1.126l0.012-0.341C18.127-2.459,20.757-5,24-5s5.873,2.541,5.988,5.785L30,1.034v33.84
	l-0.012,0.341C29.873,38.459,27.243,41,24,41s-5.873-2.541-5.988-5.785L18,34.966V1.126 M17,0.75v34.5h0.014
	C17.146,38.999,20.219,42,24,42s6.854-3.001,6.986-6.75H31V0.75h-0.014C30.854-2.998,27.781-6,24-6s-6.854,3.002-6.986,6.75H17
	L17,0.75z"/>
<g opacity="0.1">
	<polygon points="18,10.998 18,13.295 30,26.02 30,24.999 30,22.748 18,9.994 	"/>
	<path d="M18.751-1.904L30,10.021V9.001v-2.25L20.208-3.654C19.617-3.174,19.123-2.578,18.751-1.904z"/>
	<path d="M18,26.979v2.297l9.789,10.379c0.587-0.479,1.08-1.067,1.45-1.735L18,25.976V26.979z"/>
</g>
<linearGradient id="SVGID_2_" gradientUnits="userSpaceOnUse" x1="642.7988" y1="-1175.8804" x2="642.7988" y2="-1189.9666" gradientTransform="matrix(4.489659e-011 -1 -1 -4.489659e-011 -1158.8799 660.7988)">
	<stop  offset="0" style="stop-color:#000000;stop-opacity:0.5"/>
	<stop  offset="1" style="stop-color:#FFF5F5;stop-opacity:0"/>
</linearGradient>
<path fill="url(#SVGID_2_)" d="M24-6c-3.782,0-6.854,3.002-6.987,6.75H17v34.5h0.013C17.146,38.999,20.218,42,24,42
	c3.781,0,6.854-3.001,6.986-6.75H31V0.75h-0.014C30.854-2.998,27.781-6,24-6z"/>
</svg>
