<?xml version="1.0" encoding="utf-8"?>
<!-- Generator: Adobe Illustrator 15.0.2, SVG Export Plug-In . SVG Version: 6.00 Build 0)  -->
<!DOCTYPE svg PUBLIC "-//W3C//DTD SVG 1.1//EN" "http://www.w3.org/Graphics/SVG/1.1/DTD/svg11.dtd">
<svg version="1.1" id="Calque_1" xmlns="http://www.w3.org/2000/svg" xmlns:xlink="http://www.w3.org/1999/xlink" x="0px" y="0px"
	 width="48px" height="36px" viewBox="0 0 48 36" enable-background="new 0 0 48 36" xml:space="preserve">
<path fill="#FFF5F5" d="M48,18c0-3.782-3.002-6.854-6.75-6.986V11H6.75v0.014C3.001,11.146,0,14.218,0,18
	c0,3.781,3.001,6.854,6.75,6.986V25h34.5v-0.014C44.998,24.854,48,21.781,48,18z"/>
<linearGradient id="SVGID_1_" gradientUnits="userSpaceOnUse" x1="363.2002" y1="815.9199" x2="363.2002" y2="830.0044" gradientTransform="matrix(1 0 0 1 -339.1992 -804.9199)">
	<stop  offset="0" style="stop-color:#FFF5F5"/>
	<stop  offset="1" style="stop-color:#DFFFEF;stop-opacity:0.3"/>
</linearGradient>
<path fill="url(#SVGID_1_)" d="M40.874,12l0.341,0.012C44.459,12.127,47,14.757,47,18s-2.541,5.873-5.785,5.988L40.966,24H7.126
	l-0.341-0.012C3.541,23.873,1,21.243,1,18s2.541-5.873,5.785-5.988L7.034,12H40.874 M41.25,11H6.75v0.014
	C3.001,11.146,0,14.219,0,18s3.001,6.854,6.75,6.986V25h34.5v-0.014C44.998,24.854,48,21.781,48,18s-3.002-6.854-6.75-6.986V11
	L41.25,11z"/>
<g opacity="0.1">
	<polygon points="31.002,12 28.705,12 15.981,24 17.001,24 19.252,24 32.006,12 	"/>
	<path d="M43.904,12.751L31.979,24h1.02h2.25l10.406-9.792C45.174,13.617,44.578,13.123,43.904,12.751z"/>
	<path d="M15.021,12h-2.297L2.345,21.789c0.479,0.587,1.067,1.08,1.735,1.45L16.025,12H15.021z"/>
</g>
<linearGradient id="SVGID_2_" gradientUnits="userSpaceOnUse" x1="363.2002" y1="815.9199" x2="363.2002" y2="830.0061" gradientTransform="matrix(1 0 0 1 -339.1992 -804.9199)">
	<stop  offset="0" style="stop-color:#000000;stop-opacity:0.5"/>
	<stop  offset="1" style="stop-color:#FFF5F5;stop-opacity:0"/>
</linearGradient>
<path fill="url(#SVGID_2_)" d="M48,18c0-3.782-3.002-6.854-6.75-6.987V11H6.75v0.013C3.001,11.146,0,14.218,0,18
	c0,3.781,3.001,6.854,6.75,6.986V25h34.5v-0.014C44.998,24.854,48,21.781,48,18z"/>
</svg>
