<?xml version="1.0" encoding="utf-8"?>
<!-- Generator: Adobe Illustrator 15.0.2, SVG Export Plug-In . SVG Version: 6.00 Build 0)  -->
<!DOCTYPE svg PUBLIC "-//W3C//DTD SVG 1.1//EN" "http://www.w3.org/Graphics/SVG/1.1/DTD/svg11.dtd">
<svg version="1.1" id="Calque_1" xmlns="http://www.w3.org/2000/svg" xmlns:xlink="http://www.w3.org/1999/xlink" x="0px" y="0px"
	 width="48px" height="36px" viewBox="0 0 48 36" enable-background="new 0 0 48 36" xml:space="preserve">
<path opacity="0.1" enable-background="new    " d="M32.002,6.006h0.045H32.002z"/>
<path fill="#42608C" d="M41,15H7c-1.657,0-3,1.343-3,3c0,1.656,1.343,3,3,3h34c1.656,0,3-1.344,3-3C44,16.343,42.656,15,41,15z"/>
<path fill="#EEEBE8" d="M41,15H7c-1.656,0-3,1.343-3,3h40C44,16.343,42.656,15,41,15z"/>
<g opacity="0.1">
	<polygon points="28.807,15 25.517,15 19.168,21 22.464,20.985 	"/>
	<path d="M9.517,15l-4.98,4.707c0.451,0.649,1.152,1.106,1.965,1.243L12.807,15H9.517z"/>
	<path d="M43.451,16.279c-0.457-0.65-1.166-1.103-1.984-1.232L35.168,21l3.296-0.015L43.451,16.279z"/>
</g>
</svg>
