<?xml version="1.0" encoding="utf-8"?>
<!-- Generator: Adobe Illustrator 15.0.2, SVG Export Plug-In . SVG Version: 6.00 Build 0)  -->
<!DOCTYPE svg PUBLIC "-//W3C//DTD SVG 1.1//EN" "http://www.w3.org/Graphics/SVG/1.1/DTD/svg11.dtd">
<svg xmlns="http://www.w3.org/2000/svg" xmlns:xlink="http://www.w3.org/1999/xlink" version="1.1" id="Calque_1" x="0px" y="0px" width="160px" height="24px" viewBox="0 0 160 24" enable-background="new 0 0 160 24" xml:space="preserve">
<g>
	<g>
		<rect fill="#C0C0C0" width="80.001" height="24"/>
		
			<linearGradient id="SVGID_1_" gradientUnits="userSpaceOnUse" x1="390.96" y1="-297.5996" x2="390.96" y2="-274.5996" gradientTransform="matrix(1 0 0 1 -350.96 297.5996)">
			<stop offset="0" style="stop-color:#C0C0C0"/>
			<stop offset="1" style="stop-color:#FFFFFF"/>
		</linearGradient>
		<rect x="1" fill="url(#SVGID_1_)" width="78" height="23"/>
		<polygon fill="#C0C0C0" points="160,24 160,0 159,0 159,1 159,1 159,23 81,23 81,19.625 81,1 81,0 80,0 80,24   "/>
		
			<linearGradient id="SVGID_2_" gradientUnits="userSpaceOnUse" x1="470.96" y1="-297.5996" x2="470.96" y2="-274.5996" gradientTransform="matrix(1 0 0 1 -350.96 297.5996)">
			<stop offset="0" style="stop-color:#42608C"/>
			<stop offset="1" style="stop-color:#72A7F3"/>
		</linearGradient>
		<rect x="81" fill="url(#SVGID_2_)" width="78" height="23"/>
	</g>
	<rect fill="#2aedff" width="80" height="24"/>
	<rect x="1" y="1" fill="#eeebe8" width="78" height="22"/>
	<rect x="1" opacity="0.85" fill="#FFFFFE" width="78" height="1"/>
	<rect x="80" fill="#2aedff" width="80" height="24"/>
	<rect x="81" fill="#eeebe8" width="78" height="22"/>
	<rect x="81" y="22" opacity="0.85" fill="#FFFFFE" width="78" height="1"/>
	<rect x="1" y="1" opacity="0.15" width="78" height="22"/>
</g>
</svg>
