<?xml version="1.0" encoding="utf-8"?>
<!-- Generator: Adobe Illustrator 15.0.2, SVG Export Plug-In . SVG Version: 6.00 Build 0)  -->
<!DOCTYPE svg PUBLIC "-//W3C//DTD SVG 1.1//EN" "http://www.w3.org/Graphics/SVG/1.1/DTD/svg11.dtd">
<svg version="1.1" id="Calque_1" xmlns="http://www.w3.org/2000/svg" xmlns:xlink="http://www.w3.org/1999/xlink" x="0px" y="0px"
	 width="36px" height="36px" viewBox="0 0 36 36" enable-background="new 0 0 36 36" xml:space="preserve">
<g>
	<g>
		<path fill="#EEEBE8" d="M8,31.25c-0.965,0-1.75-0.785-1.75-1.75V7.75H28c0.965,0,1.75,0.785,1.75,1.75v20
			c0,0.965-0.785,1.75-1.75,1.75H8z"/>
		<path fill="#B1B1B2" d="M28,8c0.827,0,1.5,0.673,1.5,1.5v20c0,0.827-0.673,1.5-1.5,1.5H8c-0.827,0-1.5-0.673-1.5-1.5V8H8H28
			 M28,7.5H8c-1.1,0-2,0-2,0v22c0,1.1,0.9,2,2,2h20c1.1,0,2-0.9,2-2v-20C30,8.4,29.1,7.5,28,7.5L28,7.5z"/>
	</g>
	
		<linearGradient id="SVGID_1_" gradientUnits="userSpaceOnUse" x1="561.5723" y1="822.5596" x2="561.5723" y2="799.6016" gradientTransform="matrix(1 0 0 1 -543.5605 -791.5596)">
		<stop  offset="0" style="stop-color:#FFFFFE;stop-opacity:0"/>
		<stop  offset="1" style="stop-color:#FFFFFE;stop-opacity:0.4"/>
	</linearGradient>
	<path fill="url(#SVGID_1_)" d="M29.484,28.982c0,1.268-0.143,2.018-1.959,2.018H8.64c-1.946,0-2.099-0.82-2.099-1.975V8.042
		c0,0,0.944,0,2.099,0h18.885c1.154,0,1.959,0.13,1.959,2.057V28.982L29.484,28.982z"/>
	<polygon fill="#2AEDFF" points="6,7.5 10.875,4.5 16,4.5 16,7.5 	"/>
	
		<linearGradient id="SVGID_2_" gradientUnits="userSpaceOnUse" x1="549.5605" y1="797.5596" x2="559.5605" y2="797.5596" gradientTransform="matrix(1 0 0 1 -543.5605 -791.5596)">
		<stop  offset="0" style="stop-color:#FFFFFE;stop-opacity:0"/>
		<stop  offset="1" style="stop-color:#FFFFFE;stop-opacity:0.5"/>
	</linearGradient>
	<polygon fill="url(#SVGID_2_)" points="6,7.5 10.875,4.5 16,4.5 16,7.5 	"/>
	
		<linearGradient id="SVGID_3_" gradientUnits="userSpaceOnUse" x1="554.4355" y1="797.5596" x2="554.9355" y2="797.5596" gradientTransform="matrix(1 0 0 1 -543.5605 -791.5596)">
		<stop  offset="0" style="stop-color:#FFFFFE;stop-opacity:0.6"/>
		<stop  offset="1" style="stop-color:#FFFFFE;stop-opacity:0"/>
	</linearGradient>
	<rect x="10.875" y="4.5" fill="url(#SVGID_3_)" width="0.5" height="3"/>
</g>
<g>
	<polygon opacity="0.5" fill="#FFFFFE" enable-background="new    " points="19.895,26 13.609,19.5 19.895,13 19.895,14.558 
		15.237,19.89 19.895,25.22 	"/>
	<polygon fill="#808090" points="19.895,25.211 14,19.102 19.895,13 19.895,13.769 15.237,19.102 19.895,24.432 	"/>
</g>
</svg>
