<?xml version="1.0" encoding="utf-8"?>
<!-- Generator: Adobe Illustrator 15.0.2, SVG Export Plug-In . SVG Version: 6.00 Build 0)  -->
<!DOCTYPE svg PUBLIC "-//W3C//DTD SVG 1.1//EN" "http://www.w3.org/Graphics/SVG/1.1/DTD/svg11.dtd">
<svg version="1.1" id="Calque_1" xmlns="http://www.w3.org/2000/svg" xmlns:xlink="http://www.w3.org/1999/xlink" x="0px" y="0px"
	 width="36px" height="36px" viewBox="0 0 36 36" enable-background="new 0 0 36 36" xml:space="preserve">
<g>
	<path fill="#2AEDFF" d="M30,27c0,1.65-1.35,3-3,3H9c-1.65,0-3-1.35-3-3V9c0-1.65,1.35-3,3-3h18c1.65,0,3,1.35,3,3V27z"/>
</g>
<g>
	
		<linearGradient id="SVGID_1_" gradientUnits="userSpaceOnUse" x1="970.8799" y1="-848.7988" x2="970.8799" y2="-824.7988" gradientTransform="matrix(1 0 0 -1 -952.8799 -818.7988)">
		<stop  offset="0" style="stop-color:#FFFFFE;stop-opacity:0"/>
		<stop  offset="1" style="stop-color:#FFFFFE;stop-opacity:0.5"/>
	</linearGradient>
	<path fill="url(#SVGID_1_)" d="M30,27c0,1.65-1.35,3-3,3H9c-1.65,0-3-1.35-3-3V9c0-1.65,1.35-3,3-3h18c1.65,0,3,1.35,3,3V27z"/>
</g>
<g opacity="0.75">
	<path fill="#FFFFFE" d="M29,26c0,2.229-0.708,3-3,3H10c-2,0-3-1-3-3V10c0-2.146,1-3,3-3h16c2.188,0,3,0.75,3,3V26z"/>
</g>
<g>
	<g>
		<path fill="#EEEBE8" d="M28,25c0,1.65-1.35,3-3,3H11c-1.65,0-3-1.35-3-3V11c0-1.65,1.35-3,3-3h14c1.65,0,3,1.35,3,3V25z"/>
	</g>
	<g>
		
			<linearGradient id="SVGID_2_" gradientUnits="userSpaceOnUse" x1="970.8799" y1="-846.7988" x2="970.8799" y2="-826.7988" gradientTransform="matrix(1 0 0 -1 -952.8799 -818.7988)">
			<stop  offset="0" style="stop-color:#FFFFFE;stop-opacity:0"/>
			<stop  offset="1" style="stop-color:#FFFFFE;stop-opacity:0.4"/>
		</linearGradient>
		<path fill="url(#SVGID_2_)" d="M28,25c0,1.65-1.35,3-3,3H11c-1.65,0-3-1.35-3-3V11c0-1.65,1.35-3,3-3h14c1.65,0,3,1.35,3,3V25z"/>
	</g>
</g>
<polygon fill="#808090" points="21,23.041 21,12.952 13,18 "/>
</svg>
